{
  "source": "C:\\Users\\Peter\\Desktop\\stuff\\MIUN\\quantitative_research\\video_compression\\videos\\BVI-HD\\BVI-HD_CDVL_videos\\ORIG\\Hamster_1920x1080_60fps.mp4",
  "output": "C:\\Users\\Peter\\Desktop\\stuff\\MIUN\\quantitative_research\\video_compression\\compressed_videos\\BVI-HD\\h264\\2.5\\Hamster_1920x1080_60fps_h264.mp4",
  "codec": "h264",
  "ok": "Input #0, mov,mp4,m4a,3gp,3g2,mj2, from 'C:\\Users\\Peter\\Desktop\\stuff\\MIUN\\quantitative_research\\video_compression\\videos\\BVI-HD\\BVI-HD_CDVL_videos\\ORIG\\Hamster_1920x1080_60fps.mp4':\n  Metadata:\n    major_brand     : isom\n    minor_version   : 512\n    compatible_brands: isomiso2avc1mp41\n    encoder         : Lavf54.28.101\n  Duration: 00:00:05.00, start: 0.000000, bitrate: 208485 kb/s\n  Stream #0:0[0x1](und): Video: h264 (High 4:4:4 Predictive) (avc1 / 0x31637661), yuv420p(progressive), 1920x1080, 208481 kb/s, 60 fps, 60 tbr, 60 tbn (default)\n    Metadata:\n      handler_name    : VideoHandler\n      vendor_id       : [0][0][0][0]\n[out#0/mp4 @ 000001ef48249c00] Codec AVOption b:a (set bitrate (in bits/s)) has not been used for any stream. The most likely reason is either wrong type (e.g. a video option with no video streams) or that it is a private option of some decoder which was not actually used for any stream.\nStream mapping:\n  Stream #0:0 -> #0:0 (h264 (native) -> h264 (libx264))\nPress [q] to stop, [?] for help\n[libx264 @ 000001ef48a9a240] using cpu capabilities: MMX2 SSE2Fast SSSE3 SSE4.2 AVX FMA3 BMI2 AVX2\n[libx264 @ 000001ef48a9a240] profile High, level 5.0, 4:2:0, 8-bit\n[libx264 @ 000001ef48a9a240] 264 - core 165 r3222 b35605a - H.264/MPEG-4 AVC codec - Copyleft 2003-2025 - http://www.videolan.org/x264.html - options: cabac=1 ref=5 deblock=1:0:0 analyse=0x3:0x113 me=hex subme=8 psy=1 psy_rd=1.00:0.00 mixed_ref=1 me_range=16 chroma_me=1 trellis=2 8x8dct=1 cqm=0 deadzone=21,11 fast_pskip=1 chroma_qp_offset=-2 threads=18 lookahead_threads=3 sliced_threads=0 nr=0 decimate=1 interlaced=0 bluray_compat=0 constrained_intra=0 bframes=3 b_pyramid=2 b_adapt=1 b_bias=0 direct=3 weightb=1 open_gop=0 weightp=2 keyint=250 keyint_min=25 scenecut=40 intra_refresh=0 rc_lookahead=50 rc=cbr mbtree=1 bitrate=2500 ratetol=1.0 qcomp=0.60 qpmin=0 qpmax=69 qpstep=4 vbv_maxrate=2500 vbv_bufsize=2500 nal_hrd=none filler=0 ip_ratio=1.40 aq=1:1.00\nOutput #0, mp4, to 'C:\\Users\\Peter\\Desktop\\stuff\\MIUN\\quantitative_research\\video_compression\\compressed_videos\\BVI-HD\\h264\\2.5\\Hamster_1920x1080_60fps_h264.mp4':\n  Metadata:\n    major_brand     : isom\n    minor_version   : 512\n    compatible_brands: isomiso2avc1mp41\n    encoder         : Lavf62.3.100\n  Stream #0:0(und): Video: h264 (avc1 / 0x31637661), yuv420p(tv, progressive), 1920x1080, q=2-31, 2500 kb/s, 60 fps, 15360 tbn (default)\n    Metadata:\n      encoder         : Lavc62.11.100 libx264\n      handler_name    : VideoHandler\n      vendor_id       : [0][0][0][0]\n    Side data:\n      cpb: bitrate max/min/avg: 2500000/0/2500000 buffer size: 2500000 vbv_delay: N/A\nframe=    0 fps=0.0 q=0.0 size=       0KiB time=N/A bitrate=N/A speed=N/A elapsed=0:00:01.21    \nframe=    0 fps=0.0 q=0.0 size=       0KiB time=N/A bitrate=N/A speed=N/A elapsed=0:00:01.84    \nframe=    0 fps=0.0 q=0.0 size=       0KiB time=N/A bitrate=N/A speed=N/A elapsed=0:00:02.42    \nframe=   21 fps=6.8 q=38.0 size=       0KiB time=00:00:00.31 bitrate=   1.2kbits/s speed=0.103x elapsed=0:00:03.08    \nframe=   42 fps= 11 q=38.0 size=       0KiB time=00:00:00.66 bitrate=   0.6kbits/s speed=0.176x elapsed=0:00:03.78    \nframe=   65 fps= 14 q=37.0 size=     256KiB time=00:00:01.05 bitrate=1997.7kbits/s speed=0.228x elapsed=0:00:04.60    \nframe=   96 fps= 18 q=38.0 size=     256KiB time=00:00:01.45 bitrate=1446.6kbits/s speed=0.275x elapsed=0:00:05.26    \nframe=  116 fps= 19 q=39.0 size=     512KiB time=00:00:01.83 bitrate=2288.0kbits/s speed=0.305x elapsed=0:00:06.02    \nframe=  144 fps= 22 q=39.0 size=     512KiB time=00:00:02.30 bitrate=1823.8kbits/s speed=0.346x elapsed=0:00:06.64    \nframe=  168 fps= 23 q=39.0 size=     768KiB time=00:00:02.70 bitrate=2330.3kbits/s speed=0.367x elapsed=0:00:07.35    \nframe=  192 fps= 24 q=40.0 size=     768KiB time=00:00:03.16 bitrate=1986.9kbits/s speed=0.396x elapsed=0:00:08.00    \nframe=  222 fps= 26 q=42.0 size=    1024KiB time=00:00:03.51 bitrate=2385.5kbits/s speed=0.41x elapsed=0:00:08.58    \nframe=  255 fps= 27 q=41.0 size=    1280KiB time=00:00:04.13 bitrate=2537.0kbits/s speed=0.442x elapsed=0:00:09.34    \nframe=  280 fps= 28 q=40.0 size=    1280KiB time=00:00:04.56 bitrate=2296.2kbits/s speed=0.457x elapsed=0:00:10.00    \n[mp4 @ 000001ef48251200] Starting second pass: moving the moov atom to the beginning of the file\n[out#0/mp4 @ 000001ef48249c00] video:1534KiB audio:0KiB subtitle:0KiB other streams:0KiB global headers:0KiB muxing overhead: 0.283569%\nframe=  300 fps= 29 q=-1.0 Lsize=    1539KiB time=00:00:04.96 bitrate=2537.7kbits/s speed=0.481x elapsed=0:00:10.31    \n[libx264 @ 000001ef48a9a240] frame I:2     Avg QP:33.85  size: 24161\n[libx264 @ 000001ef48a9a240] frame P:76    Avg QP:36.96  size:  8731\n[libx264 @ 000001ef48a9a240] frame B:222   Avg QP:39.99  size:  3867\n[libx264 @ 000001ef48a9a240] consecutive B-frames:  1.0%  0.0%  3.0% 96.0%\n[libx264 @ 000001ef48a9a240] mb I  I16..4: 13.3% 83.0%  3.7%\n[libx264 @ 000001ef48a9a240] mb P  I16..4:  3.0% 11.8%  0.1%  P16..4: 18.0%  1.4%  0.8%  0.0%  0.0%    skip:64.7%\n[libx264 @ 000001ef48a9a240] mb B  I16..4:  0.4%  1.2%  0.0%  B16..8: 19.4%  1.2%  0.1%  direct: 0.4%  skip:77.3%  L0:52.1% L1:46.6% BI: 1.3%\n[libx264 @ 000001ef48a9a240] 8x8 transform intra:78.2% inter:95.4%\n[libx264 @ 000001ef48a9a240] direct mvs  spatial:95.5% temporal:4.5%\n[libx264 @ 000001ef48a9a240] coded y,uvDC,uvAC intra: 20.8% 42.9% 9.0% inter: 1.6% 4.0% 0.0%\n[libx264 @ 000001ef48a9a240] i16 v,h,dc,p: 29% 29%  7% 35%\n[libx264 @ 000001ef48a9a240] i8 v,h,dc,ddl,ddr,vr,hd,vl,hu: 18% 12% 35%  4%  7%  6%  8%  4%  6%\n[libx264 @ 000001ef48a9a240] i4 v,h,dc,ddl,ddr,vr,hd,vl,hu: 14% 13% 21% 10% 13%  7% 12%  5%  6%\n[libx264 @ 000001ef48a9a240] i8c dc,h,v,p: 71% 13% 10%  5%\n[libx264 @ 000001ef48a9a240] Weighted P-Frames: Y:0.0% UV:0.0%\n[libx264 @ 000001ef48a9a240] ref P L0: 46.6%  9.0% 22.8%  9.6% 12.1%\n[libx264 @ 000001ef48a9a240] ref B L0: 69.5% 20.2%  8.3%  2.0%\n[libx264 @ 000001ef48a9a240] ref B L1: 90.7%  9.3%\n[libx264 @ 000001ef48a9a240] kb/s:2512.46\n",
  "seconds": 11.101524829864502,
  "probe_out": {}
}